<?xml version="1.0" encoding="UTF-8"?>
<svg id="Layer_1" xmlns="http://www.w3.org/2000/svg" version="1.1" viewBox="0 0 352 50.7">
  <!-- Generator: Adobe Illustrator 30.1.0, SVG Export Plug-In . SVG Version: 2.1.1 Build 136)  -->
  <defs>
    <style>
      .st0 {
        fill: #fff;
      }
    </style>
  </defs>
  <path class="st0" d="M1.5,2.6h22.3c4.8,0,8.5,1.2,10.9,3.6,2.4,2.4,3.6,5.8,3.6,10.2s-1.3,8-3.9,10.6c-2.6,2.5-6.6,3.8-12.1,3.8h-7.3v16.6H1.5V2.6ZM15,21.7h3.3c2.6,0,4.4-.5,5.4-1.4,1-.9,1.6-2.1,1.6-3.6s-.5-2.6-1.4-3.6c-.9-1-2.6-1.5-5.1-1.5h-3.8v10Z"/>
  <path class="st0" d="M39,25c0-7.3,2-13,5.9-17.1,3.9-4.1,9.4-6.1,16.5-6.1s12.8,2,16.7,6c3.9,4,5.9,9.6,5.9,16.8s-.9,9.5-2.6,12.9c-1.7,3.3-4.2,5.9-7.4,7.8-3.2,1.9-7.2,2.8-12.1,2.8s-8.9-.8-12.1-2.4c-3.2-1.6-5.8-4.1-7.8-7.6s-3-7.8-3-13.1ZM52.4,25.1c0,4.5.8,7.8,2.4,9.7s3.8,3,6.6,3,5.1-1,6.7-2.9c1.6-1.9,2.4-5.4,2.4-10.4s-.8-7.3-2.5-9.2c-1.6-1.9-3.9-2.9-6.7-2.9s-4.9,1-6.5,3-2.5,5.2-2.5,9.8Z"/>
  <path class="st0" d="M86.4,2.6h17.6l6.8,27.2,6.7-27.2h17.6v44.7h-11V13.2l-8.5,34.1h-9.9l-8.4-34.1v34.1h-11V2.6Z"/>
  <path class="st0" d="M138.8,2.6h22.3c4.8,0,8.5,1.2,10.9,3.6,2.4,2.4,3.6,5.8,3.6,10.2s-1.3,8-3.9,10.6c-2.6,2.5-6.6,3.8-12.1,3.8h-7.3v16.6h-13.5V2.6ZM152.2,21.7h3.3c2.6,0,4.4-.5,5.4-1.4,1-.9,1.6-2.1,1.6-3.6s-.5-2.6-1.4-3.6c-.9-1-2.6-1.5-5.1-1.5h-3.8v10Z"/>
  <path class="st0" d="M178.5,47.3V2.6h22.3c4.1,0,7.3.4,9.5,1.1s4,2.1,5.3,4.1c1.3,2,2,4.4,2,7.2s-.5,4.6-1.5,6.4-2.4,3.3-4.2,4.4c-1.1.7-2.7,1.3-4.7,1.8,1.6.5,2.8,1.1,3.5,1.6.5.4,1.2,1.2,2.1,2.4.9,1.2,1.6,2.1,1.9,2.8l6.5,13h-15.1l-7.2-13.7c-.9-1.8-1.7-2.9-2.4-3.4-1-.7-2.1-1-3.3-1h-1.2v18.2h-13.5ZM192,20.7h5.6c.6,0,1.8-.2,3.5-.6.9-.2,1.6-.7,2.2-1.4.6-.8.8-1.6.8-2.6,0-1.4-.4-2.6-1.3-3.3-.9-.8-2.6-1.2-5-1.2h-5.9v9.1Z"/>
  <path class="st0" d="M233.5,26.4v4.1h-15v-4.1h15Z"/>
  <path class="st0" d="M237.6,19.4c0-9.5,0-11.2-.1-13.2-.1-2.1-.6-3.1-2.6-3.6-.5-.1-1.5-.2-2.4-.2s-1-.1-1-.6.4-.6,1.3-.6c3.2,0,7,.2,8.7.2,2.5,0,6-.2,8.8-.2,7.6,0,10,2.4,11.4,3.7,1.3,1.4,2.9,3.9,2.9,8.2,0,7.7-6.3,14.2-14.9,14.2s-1,0-1.3,0c-.3,0-.7-.1-.7-.6s.4-.7,1.7-.7c3.4,0,8.1-4,8.1-10.4s0-6.2-3.4-9.3c-2.2-2.1-4.8-2.4-6.2-2.4s-1.8,0-2.4.2c-.3.1-.5.5-.5,1.2v25c0,5.7,0,10.7.3,13.4.2,1.7.5,3.1,2.4,3.4.8.1,2.2.2,3.1.2s1,.2,1,.5-.5.6-1.2.6c-4,0-7.8-.2-9.4-.2s-5.2.2-7.6.2-1.2-.2-1.2-.6.2-.5,1-.5,1.6-.1,2.2-.2c1.2-.2,1.5-1.6,1.8-3.4.3-2.6.3-7.6.3-13.3v-11Z"/>
  <path class="st0" d="M269.6,19.4c0-9.5,0-11.2-.1-13.2-.1-2.1-.6-3.1-2.6-3.6-.5-.1-1.5-.2-2.4-.2s-1-.1-1-.6.4-.6,1.3-.6c3.2,0,7,.2,8.3.2,2.1,0,6.7-.2,8.5-.2,3.8,0,7.9.4,11.1,2.7,1.7,1.2,4.1,4.4,4.1,8.6s-1.8,8.8-7.9,13.9c5.4,7,9.6,12.6,13.1,16.5,3.4,3.6,5.8,4.1,6.7,4.2.7.1,1.2.2,1.7.2s.7.2.7.5c0,.5-.4.6-1.2.6h-5.9c-3.4,0-4.9-.3-6.5-1.2-2.6-1.4-4.9-4.4-8.3-9.2-2.4-3.4-5.2-7.7-6-8.6-.3-.4-.7-.4-1.1-.4h-5.1c-.3-.1-.5,0-.5.4v.9c0,5.8,0,10.7.3,13.4.2,1.8.5,3.2,2.4,3.4s2.2.2,3,.2.7.2.7.5-.4.6-1.2.6c-3.5,0-8-.2-8.9-.2s-5,.2-7.4.2-1.2-.2-1.2-.6.2-.5,1-.5,1.6-.1,2.2-.2c1.2-.2,1.5-1.6,1.8-3.4.3-2.6.3-7.6.3-13.3v-11ZM276.7,24.4c0,.7.1.9.5,1.1,1.3.4,3.1.6,4.6.6,2.4,0,3.2-.2,4.3-1.1,1.8-1.4,3.6-4.2,3.6-9.4,0-8.9-5.7-11.4-9.3-11.4s-2.6,0-3.2.2c-.4.1-.5.4-.5.9v19Z"/>
  <path class="st0" d="M301.4,24.9c0-10.7,6.8-24.5,25-24.5s24.5,9.1,24.5,23.4-9.7,25.6-25.1,25.6-24.4-13.4-24.4-24.5ZM342.4,26.1c0-14-7.8-22.7-17.7-22.7s-14.9,4-14.9,19.6,7,23.3,18.6,23.3,14-2.1,14-20.2Z"/>
</svg>